<?xml version="1.0" encoding="UTF-8" standalone="no"?>
<svg
   xmlns:dc="http://purl.org/dc/elements/1.1/"
   xmlns:cc="http://creativecommons.org/ns#"
   xmlns:rdf="http://www.w3.org/1999/02/22-rdf-syntax-ns#"
   xmlns:svg="http://www.w3.org/2000/svg"
   xmlns="http://www.w3.org/2000/svg"
   xmlns:sodipodi="http://sodipodi.sourceforge.net/DTD/sodipodi-0.dtd"
   xmlns:inkscape="http://www.inkscape.org/namespaces/inkscape"
   inkscape:version="1.0beta2 (2b71d25, 2019-12-03)"
   sodipodi:docname="marker-dark-filled.svg"
   id="svg1510"
   version="1.1"
   preserveAspectRatio="xMinYMin meet"
   viewBox="0 0 363.56219 438.87213"
   height="438.87213"
   width="363.56219">
  <metadata
     id="metadata1516">
    <rdf:RDF>
      <cc:Work
         rdf:about="">
        <dc:format>image/svg+xml</dc:format>
        <dc:type
           rdf:resource="http://purl.org/dc/dcmitype/StillImage" />
        <dc:title></dc:title>
      </cc:Work>
    </rdf:RDF>
  </metadata>
  <defs
     id="defs1514" />
  <sodipodi:namedview
     showguides="false"
     inkscape:current-layer="svg1510"
     inkscape:window-maximized="1"
     inkscape:window-y="25"
     inkscape:window-x="0"
     inkscape:cy="213.32433"
     inkscape:cx="-5.9451851"
     inkscape:zoom="1.3289991"
     showgrid="false"
     id="namedview1512"
     inkscape:window-height="847"
     inkscape:window-width="1440"
     inkscape:pageshadow="2"
     inkscape:pageopacity="0"
     guidetolerance="10"
     gridtolerance="10"
     objecttolerance="10"
     borderopacity="1"
     inkscape:document-rotation="0"
     bordercolor="#666666"
     pagecolor="#ffffff"
     fit-margin-top="0"
     fit-margin-left="0"
     fit-margin-right="0"
     fit-margin-bottom="0" />
  <rect
     style="fill:none;stroke:none"
     height="780"
     width="1190"
     y="-36.675667"
     x="-27.08489"
     id="svgEditorBackground" />
  <path
     id="e2_shape"
     style="vector-effect:non-scaling-stroke;fill:#ffffff;stroke:#000000;stroke-width:3.39646999999999988px"
     d="M 181.78279,436.47049 309.12664,309.12664 c 70.33071,-70.3307 70.33071,-184.36039 0,-254.691093 -70.3307,-70.330704 -184.36039,-70.330704 -254.691093,0 -70.330704,70.330703 -70.330704,184.360393 0,254.691093 z M 118.11257,118.10577 c 35.16705,-35.167047 92.18019,-35.167047 127.34385,0 35.16365,35.16705 35.16705,92.1768 0,127.34385 -35.16705,35.16705 -92.1836,35.16705 -127.34385,0 -35.167051,-35.16365 -35.167051,-92.1768 0,-127.34385 z"
     inkscape:connector-curvature="0" />
  <path
     inkscape:connector-curvature="0"
     id="path2079"
     d="M 180.25513,93.051323 C 129.776,92.621073 86.060509,142.15193 93.366199,192.20114 c 5.4059,49.57236 57.720511,89.0958 106.933591,76.64938 47.98681,-10.15422 82.27275,-64.1163 66.77246,-111.5938 -10.56536,-38.00931 -47.38829,-65.206927 -86.81712,-64.205397 z"
     style="fill:#ffffff;stroke-width:1.83824" />
  <path
     inkscape:connector-curvature="0"
     id="path840"
     d="M 161.17213,267.2866 C 118.25618,255.44783 87.239925,209.23457 94.794144,168.38542 103.02058,123.90129 147.03655,89.52505 189.61819,94.32835 c 53.04069,5.9831 90.22023,57.21899 77.35723,106.60342 -10.48828,40.26721 -46.95144,69.3331 -86.33972,68.82402 -6.06618,-0.0784 -14.82478,-1.18954 -19.46357,-2.46919 z"
     style="fill:#000000;stroke-width:1.83824" />
  <path
     inkscape:connector-curvature="0"
     id="path842"
     d="m 132.12062,254.81947 c -6.87058,-4.57395 -18.70434,-16.46694 -23.46946,-23.58693 -4.20083,-6.27683 -7.68482,-12.88413 -9.985408,-18.93705 -2.527091,-6.64887 -1.649682,-6.73191 1.066205,-0.10091 6.666803,16.2774 19.200763,31.97742 33.525363,41.99382 5.15542,3.6049 5.77371,4.1322 4.84524,4.1322 -0.39757,0 -3.08945,-1.57551 -5.98194,-3.50113 z"
     style="fill:#000000;stroke-width:0.752446" />
  <path
     inkscape:connector-curvature="0"
     id="path844"
     d=""
     style="fill:#000000;stroke-width:0.752446" />
  <path
     inkscape:connector-curvature="0"
     id="path846"
     d="m 169.75095,270.27809 c -10.53763,-1.5185 -32.85318,-9.93423 -31.62245,-11.92559 0.28311,-0.45808 3.08098,0.54133 7.01729,2.50661 13.58881,6.78447 20.66102,8.37054 37.02052,8.3025 10.91826,-0.0454 13.30248,-0.28924 19.77228,-2.02219 33.65747,-9.01521 60.2922,-38.34767 66.3467,-73.0667 4.53815,-26.02371 -4.6745,-53.49082 -24.57236,-73.26132 -7.64122,-7.59231 -14.28403,-12.49471 -22.96029,-16.94472 -33.46525,-17.164159 -70.08212,-11.483298 -98.30537,15.25142 -20.48858,19.40797 -30.974314,45.07713 -28.308857,69.30032 0.701357,6.37381 2.524681,14.66213 4.164901,18.9325 0.37674,0.98085 0.214415,1.21225 -0.624545,0.89031 -2.659693,-1.02062 -5.462595,-19.4182 -4.808373,-31.56102 1.684621,-31.26774 21.659914,-60.89392 50.494984,-74.8912 38.35701,-18.619469 84.20938,-7.211222 109.9902,27.36599 10.53894,14.13481 17.59048,35.14699 17.59048,52.41611 0,11.8781 -4.24153,28.94101 -10.03682,40.37635 -16.82109,33.19161 -55.15973,53.51812 -91.15829,48.33063 z"
     style="fill:#000000;stroke-width:0.752446" />
  <path
     inkscape:connector-curvature="0"
     id="path848"
     d="M 165.30932,271.40817 C 113.27128,262.01083 80.086225,209.49113 93.796635,158.22997 102.75139,124.7495 129.6033,99.621017 164.28413,92.266572 c 8.53625,-1.810206 26.47566,-1.810206 35.01191,0 59.92062,12.706818 91.0178,76.832778 63.55869,131.065288 -12.71718,25.11678 -37.28712,43.25687 -65.17703,48.12046 -8.26523,1.44134 -24.26329,1.41951 -32.36838,-0.0442 z m 24.17766,-0.7506 c -0.25004,-0.25003 -0.89902,-0.27675 -1.44219,-0.0594 -0.60025,0.24019 -0.42196,0.41849 0.4546,0.45459 0.7932,0.0327 1.23762,-0.14517 0.98759,-0.3952 z m 25.78695,-6.3174 c 0.62077,-0.40118 0.79007,-0.7294 0.37622,-0.7294 -0.41384,0 -1.26035,0.32822 -1.88111,0.7294 -0.62077,0.40117 -0.79007,0.72939 -0.37623,0.72939 0.41385,0 1.26035,-0.32822 1.88112,-0.72939 z m -74.49268,-5.72669 c 2.9e-4,-0.0458 -2.11573,-1.45407 -4.70226,-3.12942 -14.30949,-9.26855 -27.93254,-25.43657 -34.86017,-41.3725 -1.393586,-3.20574 -2.75894,-5.71505 -3.034115,-5.57624 -0.275175,0.13881 -0.814306,-0.19979 -1.198069,-0.75245 -1.206412,-1.73734 0.179318,2.35761 3.103484,9.17106 4.23857,9.87607 10.57211,18.96847 19.15152,27.49384 8.18517,8.1336 16.98405,14.5102 19.79947,14.34879 0.95678,-0.0549 1.73984,-0.13724 1.74014,-0.18308 z m 92.64736,-4.61945 c 0.93595,-1.19342 0.90933,-1.22003 -0.28409,-0.28409 -0.72423,0.56798 -1.31678,1.16054 -1.31678,1.31678 0,0.61929 0.6179,0.2207 1.60087,-1.03269 z m 3.00979,-2.25733 c 0.93594,-1.19343 0.90933,-1.22004 -0.2841,-0.2841 -0.72423,0.56799 -1.31678,1.16054 -1.31678,1.31678 0,0.6193 0.6179,0.2207 1.60088,-1.03268 z m 4.84225,-4.13846 2.21,-2.44545 -2.44545,2.21001 c -2.2795,2.06003 -2.79131,2.68089 -2.21,2.68089 0.1295,0 1.22995,-1.10045 2.44545,-2.44545 z m 7.94933,-7.90068 c 0.93594,-1.19342 0.90933,-1.22004 -0.2841,-0.28409 -0.72423,0.56798 -1.31678,1.16053 -1.31678,1.31678 0,0.61929 0.6179,0.2207 1.60088,-1.03269 z m 19.22917,-38.70394 c -0.2402,-0.60025 -0.4185,-0.42195 -0.4546,0.45461 -0.0327,0.7932 0.14516,1.23761 0.3952,0.98758 0.25003,-0.25004 0.27676,-0.89902 0.0594,-1.44219 z m 0.75244,-3.76223 c -0.24019,-0.60025 -0.41849,-0.42195 -0.45459,0.45461 -0.0327,0.7932 0.14516,1.23761 0.3952,0.98758 0.25003,-0.25004 0.27675,-0.89902 0.0594,-1.44219 z m 0.75245,-3.76223 c -0.2402,-0.60025 -0.4185,-0.42195 -0.4546,0.45461 -0.0326,0.7932 0.14516,1.23761 0.3952,0.98758 0.25003,-0.25003 0.27676,-0.89902 0.0594,-1.44219 z M 93.156262,185.14523 c -0.179348,-0.93115 -0.326087,-0.1693 -0.326087,1.693 0,1.86231 0.146739,2.62416 0.326087,1.69301 0.179347,-0.93116 0.179347,-2.45486 0,-3.38601 z m 0.0012,-12.03036 c -0.179982,-0.93598 -0.334071,-0.34738 -0.342423,1.308 -0.0084,1.65538 0.138905,2.42119 0.327237,1.70178 0.188331,-0.71941 0.195164,-2.07381 0.01518,-3.00978 z m 0.734275,-5.22887 c -0.2402,-0.60025 -0.418497,-0.42196 -0.454603,0.4546 -0.03267,0.7932 0.145168,1.23762 0.3952,0.98759 0.250031,-0.25004 0.276763,-0.89902 0.0594,-1.44219 z M 263.52232,146.4507 c -0.88701,-1.52537 -1.10121,-1.03714 -0.37512,0.85503 0.25805,0.67246 0.62769,1.06415 0.82142,0.87042 0.19373,-0.19373 -0.007,-0.97018 -0.4463,-1.72545 z M 110.77992,129.088 c 0.93594,-1.19342 0.90933,-1.22003 -0.28409,-0.28409 -1.25339,0.98298 -1.65198,1.60088 -1.03269,1.60088 0.15625,0 0.7488,-0.59256 1.31678,-1.31679 z m 2.53758,-3.19789 c 0.74905,-0.82769 1.19261,-1.50489 0.98569,-1.50489 -0.20693,0 -0.98909,0.6772 -1.73814,1.50489 -0.74905,0.82769 -1.1926,1.50489 -0.98568,1.50489 0.20692,0 0.98908,-0.6772 1.73813,-1.50489 z m 6.01957,-6.77201 c 2.03811,-2.06923 3.53635,-3.76223 3.32943,-3.76223 -0.20692,0 -2.04377,1.693 -4.08188,3.76223 -2.03811,2.06922 -3.53636,3.76223 -3.32943,3.76223 0.20692,0 2.04377,-1.69301 4.08188,-3.76223 z m 126.0347,0.46835 c 0,-0.15625 -0.59256,-0.7488 -1.31678,-1.31678 -1.19343,-0.93594 -1.22004,-0.90933 -0.2841,0.28409 0.98297,1.25339 1.60088,1.65198 1.60088,1.03269 z m -119.26269,-6.48792 c 0.74905,-0.82769 1.19261,-1.50489 0.98569,-1.50489 -0.20693,0 -0.98909,0.6772 -1.73813,1.50489 -0.74905,0.82769 -1.19261,1.50489 -0.98569,1.50489 0.20692,0 0.98908,-0.6772 1.73813,-1.50489 z m 43.06186,-19.265754 c -0.25004,-0.250031 -0.89902,-0.276763 -1.44219,-0.0594 -0.60025,0.2402 -0.42196,0.418497 0.4546,0.454603 0.7932,0.03267 1.23762,-0.145168 0.98759,-0.3952 z m 6.77201,-0.752446 c -0.25004,-0.250031 -0.89902,-0.276763 -1.44219,-0.0594 -0.60025,0.2402 -0.42195,0.418497 0.45461,0.454603 0.7932,0.03267 1.23761,-0.145168 0.98758,-0.3952 z"
     style="fill:#000000;stroke-width:0.752446" />
  <path
     inkscape:connector-curvature="0"
     id="path850"
     d=""
     style="fill:#000000;stroke-width:0.752446" />
  <path
     inkscape:connector-curvature="0"
     id="path852"
     d=""
     style="fill:#000000;stroke-width:0.752446" />
  <path
     inkscape:connector-curvature="0"
     id="path854"
     d=""
     style="fill:#000000;stroke-width:0.752446" />
  <path
     inkscape:connector-curvature="0"
     id="path856"
     d=""
     style="fill:#000000;stroke-width:0.752446" />
  <path
     inkscape:connector-curvature="0"
     id="path858"
     d="m 165.10866,271.54687 c -54.7595,-10.38655 -87.817839,-67.55721 -69.350262,-119.93345 4.697512,-13.32269 11.414502,-23.91533 21.603642,-34.06873 13.15918,-13.11304 27.65897,-21.057179 46.09995,-25.257236 7.66407,-1.745543 28.94149,-1.75777 36.55632,-0.02101 52.33512,11.936406 83.39113,62.435506 69.75744,113.430126 -7.41773,27.7448 -28.76937,51.1787 -55.98006,61.43935 -10.68481,4.02904 -15.44527,4.85345 -29.74827,5.15174 -9.36682,0.19534 -15.20785,-0.0331 -18.93876,-0.74079 z m -28.12991,-15.35071 c -1.83987,-1.16845 -5.37681,-3.75836 -7.85989,-5.75537 -2.99756,-2.41079 -3.77202,-2.83473 -2.30467,-1.26157 1.2155,1.30315 1.8714,2.36936 1.45756,2.36936 -0.90041,0 -4.95083,-4.10249 -4.50887,-4.56684 0.16963,-0.17823 -1.94188,-2.70577 -4.69225,-5.61675 -2.75038,-2.91099 -4.17887,-4.35357 -3.17442,-3.20574 1.00444,1.14782 1.63711,2.27609 1.40593,2.50727 -0.59153,0.59153 -6.60183,-6.63403 -10.29141,-12.37231 -3.0661,-4.76857 -3.82445,-6.62831 -2.32497,-5.70157 0.42561,0.26304 -0.32071,-1.74137 -1.65849,-4.45426 -1.67406,-3.39481 -2.63937,-4.64428 -3.096448,-4.00797 -0.424846,0.59145 -0.518971,0.27075 -0.261253,-0.89011 0.431051,-1.94162 -0.608177,-4.58113 -1.803686,-4.58113 -0.399284,0 -0.725971,0.35858 -0.725971,0.79685 0,0.43827 0.374876,0.56516 0.833058,0.28199 0.549004,-0.3393 0.674771,-0.0161 0.368841,0.94776 -0.6156,1.93959 5.674719,14.66986 10.896239,22.05167 7.69616,10.88028 24.46358,25.58316 29.17549,25.58316 1.70681,0 1.55389,-0.22642 -1.43479,-2.12444 z m -26.82103,-26.2804 c -3.84117,-5.59713 -5.81571,-7.93094 -3.55312,-4.19962 2.21159,3.64722 6.2611,9.27863 6.67219,9.27863 0.20159,0 -1.20199,-2.28555 -3.11907,-5.07901 z"
     style="fill:#000000;stroke-width:0.752446" />
  <path
     inkscape:connector-curvature="0"
     id="path860"
     d="m 166.30429,271.85673 c -11.69097,-1.97865 -26.03593,-7.92718 -36.60759,-15.18033 -7.42055,-5.09119 -17.51281,-15.16873 -22.56196,-22.52905 -7.509395,-10.94669 -13.105764,-24.36099 -15.342269,-36.77487 -1.453759,-8.0692 -1.289252,-25.26385 0.314531,-32.87562 6.080506,-28.85888 23.883938,-51.95458 49.803448,-64.608075 10.57654,-5.163301 19.54269,-7.7325 30.71958,-8.802515 28.00584,-2.681128 53.64473,6.540457 73.5627,26.45842 17.79505,17.79506 26.55696,38.76472 26.59541,63.6502 0.0308,19.97176 -4.57696,35.27484 -15.56992,51.70949 -13.31656,19.90847 -35.58164,34.50108 -58.82558,38.55448 -7.02159,1.22446 -25.82672,1.45763 -32.08835,0.39787 z m -27.0274,-13.81236 c 0,-0.15194 -1.39324,-1.19824 -3.09609,-2.32513 -1.70285,-1.12689 -2.84082,-1.63586 -2.52882,-1.13104 0.36771,0.59498 0.19956,0.78425 -0.47804,0.53806 -0.57491,-0.20888 -0.97147,-0.72823 -0.88124,-1.15411 0.0902,-0.42589 -0.41767,-1.23007 -1.12867,-1.78706 -1.16635,-0.91374 -1.19177,-0.88401 -0.26003,0.30405 0.56798,0.72423 0.73728,1.32805 0.37622,1.34182 -0.36105,0.0138 0.12193,0.67399 1.07331,1.46716 0.97707,0.8146 2.25862,1.2392 2.94511,0.97577 0.87507,-0.3358 1.04289,-0.18735 0.59941,0.53021 -0.39581,0.64044 -0.32405,0.81619 0.2008,0.49182 0.44919,-0.27762 1.02939,-0.16063 1.28934,0.25996 0.44384,0.71816 1.8887,1.09185 1.8887,0.48849 z m -9.68314,-5.24824 c -0.46093,-0.55538 -0.66961,-1.17822 -0.46374,-1.38409 0.20587,-0.20587 -0.38962,-1.02122 -1.32331,-1.81188 l -1.69762,-1.43758 1.4334,1.693 c 0.78837,0.93115 1.17016,1.693 0.84843,1.693 -0.32174,0 -0.16346,0.50791 0.35173,1.12867 0.51519,0.62077 1.10601,1.12867 1.31294,1.12867 0.20692,0 -9.1e-4,-0.4544 -0.46183,-1.00979 z m -5.22607,-4.4912 c -1.75087,-1.784 -3.01,-3.41703 -2.79807,-3.62897 0.21192,-0.21192 -0.62695,-1.35514 -1.86417,-2.54047 -1.23722,-1.18533 -2.24949,-1.85608 -2.24949,-1.49054 0,0.36553 -1.26975,-0.49628 -2.82167,-1.91512 -1.55192,-1.41884 0.55798,0.88494 4.68867,5.11952 4.13069,4.23458 7.67184,7.69923 7.86924,7.69923 0.19739,0 -1.07364,-1.45964 -2.82451,-3.24365 z m -12.17885,-12.8418 c 0,-0.15625 -0.59255,-0.7488 -1.31678,-1.31678 -1.19342,-0.93595 -1.22004,-0.90934 -0.28409,0.28409 0.98297,1.25339 1.60087,1.65198 1.60087,1.03269 z m -2.25734,-3.00979 c 0,-0.15624 -0.59255,-0.74879 -1.31678,-1.31678 -1.19342,-0.93594 -1.22003,-0.90933 -0.28409,0.2841 0.98297,1.25338 1.60087,1.65198 1.60087,1.03268 z m -3.00978,-4.23058 c -0.44297,-0.82769 -0.9747,-1.50489 -1.18162,-1.50489 -0.20692,0 -0.0138,0.6772 0.42917,1.50489 0.44297,0.82769 0.9747,1.50489 1.18162,1.50489 0.20692,0 0.0138,-0.6772 -0.42917,-1.50489 z m -2.64694,-5.83146 c -0.0812,-1.13807 -0.7706,-3.34715 -1.53196,-4.90907 -1.07067,-2.19648 -1.52675,-2.58528 -2.01312,-1.71618 -0.40738,0.72794 0.0467,2.45678 1.28938,4.90908 1.05501,2.08197 2.02737,3.7854 2.16079,3.7854 0.13342,0 0.17613,-0.93115 0.0949,-2.06923 z m -5.222804,-12.92963 c -0.639689,-1.03504 -1.912054,-1.0388 -1.912054,-0.006 0,0.43827 0.3386,0.58759 0.752446,0.33181 0.413845,-0.25577 0.752445,-0.05 0.752445,0.45723 0,0.50724 0.203207,0.71905 0.45157,0.47069 0.248363,-0.24837 0.22838,-0.8127 -0.04441,-1.25408 z"
     style="fill:#000000;stroke-width:0.752446" />
  <path
     inkscape:connector-curvature="0"
     id="path862"
     d="m 167.11739,272.14602 c -38.87751,-7.41411 -67.71387,-35.75963 -75.33672,-74.05434 -1.416078,-7.11392 -1.205804,-27.56506 0.35428,-34.45709 4.327598,-19.11816 13.11798,-34.77922 26.89472,-47.916 27.30618,-26.037751 67.42434,-32.573959 101.37592,-16.516566 18.24844,8.630606 33.38703,23.131246 42.43195,40.643876 26.66135,51.6213 -1.0438,114.51355 -57.34541,130.17732 -6.38495,1.77636 -8.71498,2.01503 -21.82093,2.23513 -8.06999,0.13552 -15.5192,0.085 -16.55381,-0.11233 z m -31.60273,-16.53998 c 0,-0.62275 -1.46105,-0.97491 -1.79603,-0.43291 -0.21731,0.35163 0.0979,0.63932 0.70046,0.63932 0.60256,0 1.09557,-0.0929 1.09557,-0.20641 z m -12.79159,-8.94835 c -1.4039,-1.44846 -2.27536,-2.63356 -1.93658,-2.63356 0.33878,0 0.18765,-0.51608 -0.33584,-1.14686 -0.5235,-0.63077 -1.13003,-0.96863 -1.34786,-0.7508 -0.21782,0.21783 -1.10072,-0.18561 -1.962,-0.89652 -0.86127,-0.71091 0.45505,0.81205 2.92517,3.38436 2.47012,2.57232 4.65279,4.67694 4.85039,4.67694 0.1976,0 -0.78937,-1.18511 -2.19328,-2.63356 z m -19.11552,-26.07565 c 0.35723,-0.578 0.2034,-0.6626 -0.45968,-0.25278 -0.7492,0.46302 -0.86038,0.25841 -0.4479,-0.82431 0.41857,-1.09872 0.33955,-1.23274 -0.33328,-0.56521 -0.48508,0.48124 -0.65446,1.24309 -0.3764,1.693 0.64201,1.03879 0.94989,1.02914 1.61726,-0.0507 z"
     style="fill:#000000;stroke-width:0.752446" />
  <path
     inkscape:connector-curvature="0"
     id="path864"
     d="m 163.43387,271.45353 c -46.54361,-10.09671 -77.818131,-53.46182 -72.360843,-100.3352 1.202256,-10.32635 3.764454,-18.95819 8.623132,-29.05063 6.501361,-13.50463 17.468201,-26.43786 29.830141,-35.1788 6.57016,-4.64565 19.15881,-10.630981 27.1411,-12.904352 31.16378,-8.875503 64.40316,-0.655194 87.8831,21.734042 26.07125,24.86018 35.10539,61.02744 23.74747,95.07053 -10.3913,31.14582 -37.90953,55.1931 -69.48831,60.72353 -8.07996,1.41505 -28.73931,1.38052 -35.37579,-0.0591 z"
     style="fill:#000000;stroke-width:0.752446" />
  <path
     inkscape:connector-curvature="0"
     id="path866"
     d="m 163.43387,271.45353 c -32.01989,-6.94608 -58.11418,-30.22982 -68.497652,-61.11995 -5.530274,-16.4522 -5.958827,-36.59316 -1.135198,-53.3515 2.613485,-9.07982 8.96241,-21.96711 14.39073,-29.21086 5.38806,-7.19001 15.38484,-16.91455 22.02025,-21.42057 27.46987,-18.65444 62.52908,-21.037046 92.21016,-6.26656 8.94945,4.4536 15.16173,8.9247 23.06019,16.59687 28.06987,27.26568 35.54007,68.10293 19.01145,103.92966 -11.96265,25.9297 -37.91359,46.06396 -65.59295,50.89084 -8.17633,1.42583 -28.80175,1.39795 -35.46698,-0.0479 z"
     style="fill:#000000;stroke-width:0.752446" />
</svg>
