<?xml version="1.0" encoding="UTF-8" standalone="no"?>
<svg
   xmlns:dc="http://purl.org/dc/elements/1.1/"
   xmlns:cc="http://creativecommons.org/ns#"
   xmlns:rdf="http://www.w3.org/1999/02/22-rdf-syntax-ns#"
   xmlns:svg="http://www.w3.org/2000/svg"
   xmlns="http://www.w3.org/2000/svg"
   xmlns:sodipodi="http://sodipodi.sourceforge.net/DTD/sodipodi-0.dtd"
   xmlns:inkscape="http://www.inkscape.org/namespaces/inkscape"
   width="363.56219"
   height="438.87213"
   viewBox="0 0 363.56219 438.87213"
   preserveAspectRatio="xMinYMin meet"
   version="1.1"
   id="svg1510"
   sodipodi:docname="marker-light-filled.svg"
   inkscape:version="1.0beta2 (2b71d25, 2019-12-03)">
  <metadata
     id="metadata1516">
    <rdf:RDF>
      <cc:Work
         rdf:about="">
        <dc:format>image/svg+xml</dc:format>
        <dc:type
           rdf:resource="http://purl.org/dc/dcmitype/StillImage" />
        <dc:title></dc:title>
      </cc:Work>
    </rdf:RDF>
  </metadata>
  <defs
     id="defs1514" />
  <sodipodi:namedview
     fit-margin-bottom="0"
     fit-margin-right="0"
     fit-margin-left="0"
     fit-margin-top="0"
     pagecolor="#ffffff"
     bordercolor="#666666"
     inkscape:document-rotation="0"
     borderopacity="1"
     objecttolerance="10"
     gridtolerance="10"
     guidetolerance="10"
     inkscape:pageopacity="0"
     inkscape:pageshadow="2"
     inkscape:window-width="1440"
     inkscape:window-height="847"
     id="namedview1512"
     showgrid="false"
     inkscape:zoom="0.544"
     inkscape:cx="-5.9451851"
     inkscape:cy="213.32433"
     inkscape:window-x="0"
     inkscape:window-y="25"
     inkscape:window-maximized="1"
     inkscape:current-layer="svg1510" />
  <rect
     id="svgEditorBackground"
     x="-27.08489"
     y="-36.675667"
     width="1190"
     height="780"
     style="fill:none;stroke:none" />
  <path
     inkscape:connector-curvature="0"
     d="M 181.78279,436.47049 309.12664,309.12664 c 70.33071,-70.3307 70.33071,-184.36039 0,-254.691093 -70.3307,-70.330704 -184.36039,-70.330704 -254.691093,0 -70.330704,70.330703 -70.330704,184.360393 0,254.691093 z M 118.11257,118.10577 c 35.16705,-35.167047 92.18019,-35.167047 127.34385,0 35.16365,35.16705 35.16705,92.1768 0,127.34385 -35.16705,35.16705 -92.1836,35.16705 -127.34385,0 -35.167051,-35.16365 -35.167051,-92.1768 0,-127.34385 z"
     style="vector-effect:non-scaling-stroke;fill:#000000;stroke:#000000;stroke-width:3.39647px"
     id="e2_shape" />
  <path
     style="fill:#ffffff;stroke-width:1.83824"
     d="M 180.25513,93.051323 C 129.776,92.621073 86.060509,142.15193 93.366199,192.20114 c 5.4059,49.57236 57.720511,89.0958 106.933591,76.64938 47.98681,-10.15422 82.27275,-64.1163 66.77246,-111.5938 -10.56536,-38.00931 -47.38829,-65.206927 -86.81712,-64.205397 z"
     id="path2079"
     inkscape:connector-curvature="0" />
</svg>
